<svg width="49" height="53" viewBox="0 0 49 53" fill="none" xmlns="http://www.w3.org/2000/svg">
<g clip-path="url(#clip0_154_2269)">
<path d="M3.10065 20.0832C3.10065 16.9727 5.59093 14.4501 8.64275 14.4501H10.5715C8.93573 15.7726 7.8859 17.8055 7.8859 20.0832V26.4265C7.8859 26.8674 8.2277 27.2103 8.64275 27.2103C9.0578 27.2103 9.3996 26.8674 9.3996 26.4265V20.0832C9.3996 17.2421 11.4993 14.8665 14.2093 14.4991V51.4815H9.3996V29.8064C9.3996 29.3655 9.0578 29.0226 8.64275 29.0226C8.2277 29.0226 7.8859 29.3655 7.8859 29.8064V51.4815H3.07623V20.1077L3.10065 20.0832ZM9.42402 12.0009C9.42402 11.5601 9.76582 11.2172 10.1809 11.2172H19.7758C20.1908 11.2172 20.5326 11.5601 20.5326 12.0009V12.8826H9.44843V12.0009H9.42402ZM14.1604 8.52311C14.1604 4.7024 17.2367 1.56747 20.9965 1.56747H31.1286C34.8884 1.56747 37.9646 4.67791 37.9646 8.52311V22.5568H36.3044V8.49861C36.3044 5.6086 33.9851 3.2329 31.1286 3.2329H27.6617C27.2466 3.2329 26.9048 3.57579 26.9048 4.01664C26.9048 4.45749 27.2466 4.80037 27.6617 4.80037H31.1286C33.1305 4.80037 34.7907 6.4658 34.7907 8.49861V22.6548C33.8874 22.9732 33.2282 23.8304 33.2282 24.8591V25.7897C31.2995 26.0102 29.566 27.0143 28.4185 28.4838V20.0832C28.4185 16.3849 25.6353 13.3235 22.0952 12.9316V12.0009C22.0952 10.7274 21.0698 9.67421 19.8002 9.67421H17.3587V8.52311C17.3587 6.4903 18.9945 4.82486 21.0209 4.82486H24.3657C24.7808 4.82486 25.1226 4.48198 25.1226 4.04113C25.1226 3.60028 24.7808 3.25739 24.3657 3.25739H21.0209C18.1644 3.25739 15.845 5.60859 15.845 8.52311V9.67421H14.1849V8.52311H14.1604ZM39.5516 25.7653H34.7419V24.8835C34.7419 24.4672 35.0593 24.1243 35.4743 24.0998C35.4988 24.0998 38.7947 24.0998 38.8191 24.0998C39.2342 24.0998 39.5516 24.4672 39.5516 24.8835V25.7653ZM45.8749 32.9658V38.6234H39.5516C38.8191 37.3008 38.0379 36.1252 37.7693 35.7334C37.3543 35.2925 36.9392 35.2925 36.4998 35.7334C36.2312 36.1252 35.4499 37.3008 34.7175 38.6234H28.3941V32.9168C28.3941 29.8309 30.9088 27.3327 33.9362 27.3327H40.284C43.3358 27.3327 45.8261 29.8554 45.8261 32.9658M37.0613 45.0647C35.7673 45.0647 34.6931 43.9626 34.6931 42.6155C34.6931 41.7338 35.9382 39.4071 37.0857 37.5947C38.2332 39.4071 39.4783 41.7338 39.4783 42.6155C39.4783 44.0605 38.282 44.8688 37.0369 45.0647M28.3453 40.1908H33.863C33.4479 41.1215 33.1305 42.0032 33.1305 42.64C33.1305 43.5462 33.4479 44.4034 33.9606 45.0892H28.3453V40.2153V40.1908ZM22.0219 14.5236C24.7319 14.8909 26.8316 17.2666 26.8316 20.1077V51.4815H22.0219V14.4746V14.5236ZM15.6986 48.1996H20.5082V51.4815H15.6986V48.1996ZM20.5082 17.7565H15.6986V14.4746H20.5082V17.7565ZM15.6986 43.3993H20.5082V46.6567H15.6986V43.3993ZM20.5082 22.5813H15.6986V19.3239H20.5082V22.5813ZM20.5082 41.8318H15.6986V38.5744H20.5082V41.8318ZM20.5082 37.0069H15.6986V33.7495H20.5082V37.0069ZM15.6986 24.1243H20.5082V27.3817H15.6986V24.1243ZM20.5082 32.2066H15.6986V28.9492H20.5082V32.2066ZM45.8261 51.506H28.3697V46.6322H45.8261V51.506ZM48.1699 51.506H47.3398V44.3055C47.3398 43.8646 46.998 43.5217 46.583 43.5217C46.1679 43.5217 45.8261 43.8646 45.8261 44.3055V45.0647H40.2108C40.7235 44.3789 41.0409 43.5462 41.0409 42.6155C41.0409 41.9787 40.7479 41.097 40.3084 40.1664H45.8261V40.9011C45.8261 41.342 46.1679 41.6848 46.583 41.6848C46.998 41.6848 47.3398 41.342 47.3398 40.9011V32.9413C47.3398 29.2431 44.5566 26.1571 41.0164 25.7897V24.8591C41.0164 23.8304 40.3573 22.9487 39.4539 22.6548V8.49861C39.4539 3.8207 35.6941 0 31.0797 0H20.9477C16.3333 0 12.5735 3.8207 12.5735 8.49861V9.64972H10.132C8.86248 9.64972 7.83707 10.7029 7.83707 11.9764V12.9071C4.27255 13.299 1.5137 16.3604 1.5137 20.0587V51.4325H0.683609C0.268562 51.4325 -0.0732422 51.7754 -0.0732422 52.2163C-0.0732422 52.6571 0.268562 53 0.683609 53H48.1699C48.585 53 48.9268 52.6571 48.9268 52.2163C48.9268 51.7754 48.585 51.4325 48.1699 51.4325" fill="#1A348F"/>
</g>
<defs>
<clipPath id="clip0_154_2269">
<rect width="49" height="53" fill="white"/>
</clipPath>
</defs>
</svg>
