<svg width="49" height="50" viewBox="0 0 49 50" fill="none" xmlns="http://www.w3.org/2000/svg">
<g clip-path="url(#clip0_154_2271)">
<path d="M2.53545 35.7258C2.53545 35.7258 2.56214 35.4847 2.61551 35.3776C3.81649 32.9138 7.39275 25.6829 8.54035 23.3262V26.165C7.81976 27.6379 3.44286 36.5024 2.53545 38.3771V35.699V35.7258ZM11.4494 18.8806H37.524C38.0578 18.8806 38.5382 18.7467 38.9919 18.4788V25.6294H10.0082V18.4788C10.4352 18.7199 10.9423 18.8806 11.4761 18.8806M46.4646 38.4039L40.4597 26.1918V23.353C41.6073 25.6829 45.1836 32.9405 46.3846 35.4044C46.4379 35.5115 46.4646 35.6186 46.4646 35.7525V38.4306V38.4039ZM36.3497 30.5035H35.2555C35.0153 30.5035 34.8018 30.3428 34.7217 30.1018L34.0812 27.7986C33.9744 27.4505 34.2413 27.1023 34.615 27.1023H35.469C35.6825 27.1023 35.896 27.2362 35.9761 27.4505L36.8568 29.7536C36.9902 30.1018 36.7234 30.5035 36.3497 30.5035ZM28.8769 30.5035H27.6493C27.3557 30.5035 27.1155 30.2625 27.1155 29.9679L26.9821 27.6647C26.9821 27.3433 27.2223 27.0755 27.5158 27.0755H28.4766C28.7435 27.0755 28.9837 27.263 29.0104 27.5308L29.384 29.834C29.4374 30.1821 29.1705 30.4767 28.8503 30.4767M21.9913 27.6647L21.8579 29.9679C21.8579 30.2625 21.591 30.5035 21.3241 30.5035H20.1231C19.7762 30.5035 19.536 30.2089 19.5894 29.8607L19.963 27.5576C20.0164 27.2898 20.2299 27.1023 20.4968 27.1023H21.4576C21.6177 27.1023 21.7511 27.1559 21.8579 27.263C21.9646 27.3701 22.018 27.5308 22.018 27.6647M14.9189 27.7718L14.3051 30.075C14.2517 30.316 14.0115 30.4767 13.7713 30.4767H12.6771C12.3034 30.4767 12.0365 30.075 12.17 29.7268L13.0507 27.4237C13.1308 27.2094 13.3443 27.0755 13.5578 27.0755H14.4118C14.7854 27.0755 15.0256 27.4237 14.9456 27.7718M45.0501 48.5003H4.00331C2.58882 48.5003 1.44122 47.3487 1.44122 45.9025C1.44122 44.5903 1.76148 43.2512 2.32194 42.0728C2.72227 41.2426 9.31431 27.9057 9.71464 27.0755H11.5828L10.7822 29.1912C10.2751 30.5035 11.2359 31.9497 12.6504 31.9497H13.7446C14.6253 31.9497 15.426 31.3337 15.6662 30.4767L16.28 28.1735C16.3868 27.7986 16.3868 27.4237 16.28 27.0755H18.5752C18.5752 27.0755 18.5485 27.2094 18.5218 27.2898L18.1482 29.5929C17.9347 30.8249 18.8688 31.9497 20.1231 31.9497H21.3241C22.3917 31.9497 23.2457 31.1194 23.3258 30.0482L23.4592 27.745C23.4592 27.5308 23.4592 27.2898 23.3791 27.0755H25.621C25.5676 27.2898 25.5409 27.504 25.5409 27.745L25.6743 30.0482C25.7277 31.1194 26.6084 31.9497 27.676 31.9497H28.9036C30.1313 31.9497 31.0654 30.8249 30.8786 29.5929L30.5049 27.2898C30.5049 27.2898 30.4783 27.1291 30.4516 27.0755H32.7468C32.64 27.4237 32.64 27.7986 32.7468 28.1735L33.3873 30.4767C33.6275 31.3605 34.4015 31.9497 35.3089 31.9497H36.4031C37.7909 31.9497 38.7784 30.5303 38.2713 29.1912L37.4706 27.0755H39.3388C41.554 31.5479 40.5131 29.459 46.7315 42.0728C47.3187 43.2512 47.6122 44.5903 47.6122 45.9025C47.6122 47.3219 46.4646 48.5003 45.0501 48.5003ZM4.05669 49.9732H45.0501C47.2653 49.9732 49.0534 48.1521 49.0534 45.9293C49.0534 44.376 48.6798 42.8227 48.0126 41.4301L47.9592 41.323V35.7258C47.9592 35.3776 47.8791 35.0295 47.719 34.7349L46.4913 32.2175V8.27531C46.4913 7.79325 46.1177 7.39154 45.6373 7.39154H19.8029V1.17836C19.8029 0.535619 19.2958 0 18.6553 0H14.1449C13.7446 0 13.4243 0.321371 13.4243 0.723085C13.4243 1.1248 13.7446 1.44617 14.1449 1.44617H18.3617V7.39154H6.05832V5.08838C7.0458 4.09748 8.51366 2.59775 9.63458 1.44617H10.7555C11.1558 1.44617 11.4761 1.1248 11.4761 0.723085C11.4761 0.321371 11.1558 0 10.7555 0H9.52782C9.20756 0 8.91399 0.133905 8.70048 0.348152C7.0458 2.03535 5.73806 3.3744 4.9641 4.15104C4.75059 4.36529 4.61715 4.65988 4.61715 4.98125V7.39154H3.41617C2.93577 7.39154 2.56214 7.79325 2.56214 8.27531V23.9422C2.56214 24.3439 2.8824 24.6652 3.28272 24.6652C3.68305 24.6652 4.00331 24.3439 4.00331 23.9422V8.86449H44.9701V29.2983L40.433 20.0857V15.4258C40.433 14.917 40.0327 14.4885 39.5256 14.4885H37.8176C37.4173 14.4885 37.097 14.8099 37.097 15.2116C37.097 15.6133 37.4173 15.9347 37.8176 15.9347H38.9919C38.9919 16.7649 38.3247 17.4076 37.524 17.4076H11.4761C10.6754 17.4076 10.0082 16.7649 10.0082 15.9347H34.4548C34.8552 15.9347 35.1754 15.6133 35.1754 15.2116C35.1754 14.8099 34.8552 14.4885 34.4548 14.4885H9.47445C8.96736 14.4885 8.56704 14.917 8.56704 15.4258V20.0857L4.03 29.2983V27.3433C4.03 26.9416 3.70974 26.6202 3.30941 26.6202C2.90909 26.6202 2.58882 26.9416 2.58882 27.3433V32.2175L1.36116 34.7349C1.20103 35.0562 1.12096 35.4044 1.12096 35.7258V41.323L1.06758 41.4301C0.373683 42.8227 0.0267334 44.376 0.0267334 45.9293C0.0267334 48.1521 1.81486 49.9732 4.03 49.9732" fill="#1A348F"/>
<path d="M43.7423 43.0103H5.25758C4.85725 43.0103 4.53699 43.3316 4.53699 43.7333C4.53699 44.1351 4.85725 44.4564 5.25758 44.4564H43.7156C44.116 44.4564 44.4362 44.1351 44.4362 43.7333C44.4362 43.3316 44.116 43.0103 43.7156 43.0103" fill="#1A348F"/>
<path d="M8.40682 39.4751L9.87468 35.6723C9.95475 35.458 10.1683 35.3241 10.3818 35.3241H12.1165C12.4902 35.3241 12.7303 35.6723 12.6503 36.0204L11.6094 39.8233C11.5561 40.0643 11.3159 40.225 11.0757 40.225H8.9139C8.54026 40.225 8.27338 39.8233 8.40682 39.4751ZM8.9139 41.698H11.0757C11.9564 41.698 12.757 41.082 12.9972 40.225L14.0381 36.4221C14.385 35.1366 13.4242 33.8779 12.1165 33.8779H10.3818C9.55442 33.8779 8.83383 34.3868 8.51357 35.1634L7.04571 38.9663C6.53863 40.2786 7.49941 41.7247 8.9139 41.7247" fill="#1A348F"/>
<path d="M17.988 39.5823L18.6018 35.7794C18.6552 35.5116 18.8687 35.3241 19.1356 35.3241H21.0038C21.324 35.3241 21.5642 35.5919 21.5375 35.9133L21.324 39.7162C21.324 40.0108 21.0572 40.2518 20.7903 40.2518H18.5217C18.1748 40.2518 17.9346 39.9572 17.988 39.6091M18.5217 41.7247H20.7903C21.8578 41.7247 22.7118 40.8945 22.7919 39.8233L23.0054 36.0204C23.0588 34.8688 22.1514 33.8779 21.0038 33.8779H19.1356C18.1481 33.8779 17.3208 34.5742 17.1606 35.5651L16.5468 39.368C16.3333 40.5999 17.2941 41.7247 18.5217 41.7247Z" fill="#1A348F"/>
<path d="M27.9694 35.3239H29.8376C30.1045 35.3239 30.3447 35.5114 30.3714 35.7792L30.9852 39.5821C31.0386 39.9303 30.7717 40.2249 30.4515 40.2249H28.183C27.8894 40.2249 27.6492 39.9838 27.6492 39.6892L27.4357 35.8863C27.4357 35.565 27.6759 35.2972 27.9694 35.2972M26.1813 39.7696C26.2347 40.8408 27.1154 41.671 28.183 41.671H30.4515C31.6791 41.671 32.6132 40.5462 32.4264 39.3143L31.8126 35.5114C31.6525 34.5473 30.8251 33.8242 29.8376 33.8242H27.9694C26.8218 33.8242 25.9144 34.7883 25.9678 35.9667L26.1813 39.7696Z" fill="#1A348F"/>
<path d="M36.8834 35.324H38.6182C38.8317 35.324 39.0452 35.4579 39.1252 35.6722L40.5931 39.4751C40.7265 39.85 40.4597 40.2249 40.086 40.2249H37.9243C37.6841 40.2249 37.4706 40.0642 37.3905 39.8232L36.3496 36.0203C36.2429 35.6722 36.5098 35.324 36.8834 35.324ZM36.0027 40.2249C36.2429 41.1087 37.0435 41.6979 37.9243 41.6979H40.086C41.4738 41.6979 42.4613 40.2785 41.9542 38.9395L40.4864 35.1366C40.1928 34.3599 39.4455 33.8511 38.6182 33.8511H36.8834C35.5757 33.8511 34.6149 35.1098 34.9618 36.3953L36.0027 40.1982V40.2249Z" fill="#1A348F"/>
<path d="M17.6944 23.7009C18.0413 23.8884 18.495 23.7813 18.6819 23.4331L19.9629 21.2103C20.1497 20.8621 20.043 20.4069 19.696 20.2194C19.3491 20.0051 18.8954 20.139 18.7086 20.4872L17.4275 22.71C17.2407 23.0582 17.3474 23.5134 17.6944 23.7009Z" fill="#1A348F"/>
<path d="M30.3181 23.4331C30.5316 23.7813 30.9586 23.9152 31.3055 23.7009C31.6525 23.4867 31.7592 23.0582 31.5724 22.71L30.2914 20.4872C30.1045 20.139 29.6508 20.0051 29.3039 20.2194C28.9569 20.4336 28.8502 20.8621 29.037 21.2103L30.3181 23.4331Z" fill="#1A348F"/>
<path d="M24.5 23.7813C24.9003 23.7813 25.2206 23.4599 25.2206 23.0582V20.8354C25.2206 20.4337 24.9003 20.1123 24.5 20.1123C24.0997 20.1123 23.7794 20.4337 23.7794 20.8354V23.0582C23.7794 23.4599 24.0997 23.7813 24.5 23.7813Z" fill="#1A348F"/>
<path d="M17.2407 5.54389C17.2407 5.9456 16.9205 6.26697 16.5201 6.26697C16.1198 6.26697 15.7996 5.9456 15.7996 5.54389C15.7996 5.14217 16.1198 4.8208 16.5201 4.8208C16.9205 4.8208 17.2407 5.14217 17.2407 5.54389Z" fill="#1A348F"/>
<path d="M14.7854 5.54389C14.7854 5.9456 14.4652 6.26697 14.0648 6.26697C13.6645 6.26697 13.3442 5.9456 13.3442 5.54389C13.3442 5.14217 13.6645 4.8208 14.0648 4.8208C14.4652 4.8208 14.7854 5.14217 14.7854 5.54389Z" fill="#1A348F"/>
<path d="M12.3301 5.54389C12.3301 5.9456 12.0098 6.26697 11.6095 6.26697C11.2092 6.26697 10.8889 5.9456 10.8889 5.54389C10.8889 5.14217 11.2092 4.8208 11.6095 4.8208C12.0098 4.8208 12.3301 5.14217 12.3301 5.54389Z" fill="#1A348F"/>
<path d="M30.1313 12.5868C30.5316 12.5868 30.8519 12.2654 30.8519 11.8637C30.8519 11.462 30.5316 11.1406 30.1313 11.1406H18.5752C18.1749 11.1406 17.8546 11.462 17.8546 11.8637C17.8546 12.2654 18.1749 12.5868 18.5752 12.5868H30.1313Z" fill="#1A348F"/>
</g>
<defs>
<clipPath id="clip0_154_2271">
<rect width="49" height="50" fill="white"/>
</clipPath>
</defs>
</svg>
