<svg width="54" height="56" viewBox="0 0 54 56" fill="none" xmlns="http://www.w3.org/2000/svg">
<g clip-path="url(#clip0_154_2288)">
<path d="M36.2839 3.22255C36.2839 2.3347 36.9716 1.64416 37.823 1.64416H50.6271C51.4785 1.64416 52.1662 2.36759 52.1662 3.22255V9.33881C52.1662 10.2267 51.4785 10.9172 50.6271 10.9172H42.0146C41.7199 10.9172 41.4252 11.0487 41.2287 11.246L38.4124 14.1726V12.0023C38.4124 11.4433 38.0522 10.983 37.5283 10.8514C36.8406 10.687 36.3166 10.0294 36.3166 9.30593V3.22255H36.2839ZM36.8078 12.3969V15.1591C36.8078 15.6524 37.1025 16.1127 37.561 16.31C38.0195 16.5073 38.5434 16.4087 38.8709 16.047L42.2111 12.5942H50.6599C52.3627 12.5942 53.7708 11.1474 53.7708 9.3717V3.22255C53.7708 1.44686 52.3627 0 50.6599 0H37.8557C36.1529 0 34.7448 1.44686 34.7448 3.22255V9.33881C34.7448 10.7199 35.5962 11.9366 36.8406 12.3969" fill="#1A348F"/>
<path d="M48.4985 54.3557H5.50155C3.34024 54.3557 1.60464 52.5471 1.60464 50.311C1.60464 50.0151 1.83387 49.7849 2.1286 49.7849H18.3384C18.6986 51.5606 20.2378 52.9088 22.0388 52.9088H31.994C33.8278 52.9088 35.3342 51.5606 35.6944 49.7849H51.9042C52.1989 49.7849 52.4282 50.0151 52.4282 50.311C52.4282 52.5471 50.6598 54.3557 48.5313 54.3557M5.17408 38.9335C5.17408 36.6974 6.61495 34.6915 8.71077 34.0339H8.84175V34.001L13.0661 32.7185C13.1316 32.9816 13.2954 33.2447 13.4918 33.442L16.4391 36.5001C16.7993 36.8618 17.2578 37.0262 17.6835 37.0262C17.8145 37.0262 17.9127 37.0262 18.0437 36.9934L18.6986 38.1443L16.9958 48.1079H10.5446V45.5101C10.5446 45.0497 10.1844 44.688 9.75867 44.688C9.33296 44.688 8.97274 45.0497 8.97274 45.5101V48.1079H5.17408V38.9335ZM10.0534 25.2541H14.1795C14.7035 26.0104 15.3257 26.7009 16.0461 27.2271V29.8577C15.7187 29.8577 15.3912 29.8906 15.0637 30.055L14.0158 30.5483C13.8193 30.6469 13.6556 30.7456 13.5246 30.8771L9.39846 32.1266V25.9446C9.39846 25.5829 9.69318 25.2541 10.0534 25.2541ZM13.0006 19.7297V18.1184H13.6228C14.8345 18.1184 15.8496 17.099 15.8496 15.8166V14.9945C15.8496 14.5013 16.3408 14.1396 16.7993 14.2711C19.2226 15.0932 21.9079 15.0932 24.3311 14.2711C24.7896 14.1067 25.2808 14.4684 25.2808 14.9945V15.8166C25.2808 17.099 26.2632 18.1184 27.5076 18.1184H28.1298V19.7297C28.1298 19.8941 27.9988 20.0256 27.8351 20.0256C27.2456 20.0256 26.7217 20.5189 26.6889 21.1437C26.4925 24.4978 23.8072 27.0955 20.5652 27.0955C17.3233 27.0955 14.638 24.4649 14.4415 21.1437C14.4088 20.5189 13.8848 20.0256 13.2954 20.0256C13.1316 20.0256 13.0006 19.8941 13.0006 19.7297ZM13.0006 12.5612C13.0006 10.2922 14.769 8.48366 16.963 8.48366H24.0692C24.7569 8.48366 25.3463 9.07556 25.3463 9.79899C25.3463 10.654 26.0012 11.3445 26.8199 11.3445H26.8854C27.5731 11.3445 28.1626 11.9364 28.1626 12.6598V16.5072H27.5404C27.1801 16.5072 26.8854 16.2112 26.8854 15.8495V15.0274C26.8854 13.3833 25.3463 12.2652 23.8727 12.7585C21.7769 13.4819 19.4518 13.4819 17.356 12.7585C15.8824 12.2652 14.3433 13.3833 14.3433 15.0274V15.8495C14.3433 16.2112 14.0485 16.5072 13.6883 16.5072H13.0661V12.5941L13.0006 12.5612ZM34.057 49.752C33.7296 50.607 32.9436 51.2318 31.994 51.2318H22.0388C21.0892 51.2318 20.3032 50.607 19.9758 49.752H34.057ZM20.205 38.8348H20.9582L22.5628 48.1407H18.6331L20.2378 38.8348H20.205ZM20.0085 37.1907L19.4191 36.1384L20.6635 35.0532L21.7769 36.0397L21.1547 37.1907H20.0085ZM26.5252 32.0609C26.5252 32.0609 26.6562 32.2582 26.5579 32.3239L23.6107 35.2834C23.6107 35.2834 23.4142 35.3821 23.316 35.2834L21.9079 34.0339L24.8878 31.6334C24.8878 31.6334 25.2481 31.469 25.4118 31.5676L26.4925 32.0609H26.5252ZM23.5125 28.1807V30.6798L20.6635 32.9816L17.6507 30.6469V28.1807C19.5173 28.9699 21.6131 29.0027 23.5125 28.1807ZM14.6707 32.0609L15.7187 31.5676C15.8824 31.5019 16.1116 31.5019 16.2426 31.6334L19.3536 34.0668L17.8145 35.3821C17.8145 35.3821 17.5852 35.4478 17.5197 35.3821L14.6052 32.3568C14.6052 32.3568 14.5398 32.1266 14.638 32.0938M43.9139 25.3198C44.2741 25.3198 44.5689 25.6158 44.5689 26.0104V48.1736H37.4955V45.1813C37.4955 44.7209 37.1353 44.3592 36.7096 44.3592C36.2838 44.3592 35.9236 44.7209 35.9236 45.1813V48.1736H32.125V45.5759C32.125 45.1155 31.7647 44.7538 31.339 44.7538C30.9133 44.7538 30.5531 45.1155 30.5531 45.5759V48.1736H24.1347L22.4318 38.21L23.0868 36.9934C23.0868 36.9934 23.3487 37.0262 23.4797 37.0262C23.9382 37.0262 24.3966 36.8618 24.7241 36.5001L27.6714 33.5406C27.8678 33.3433 28.0316 33.0803 28.0971 32.7843L32.4197 34.0996C34.4827 34.7244 35.9564 36.7303 35.9564 38.9992V41.3339C35.9564 41.7943 36.3166 42.156 36.7423 42.156C37.168 42.156 37.5282 41.7943 37.5282 41.3339V38.9992C37.5282 36.0397 35.5962 33.3762 32.8781 32.5541L27.6714 30.9757C27.6714 30.9757 27.3439 30.7127 27.1801 30.6469L26.0995 30.1537C25.772 30.0221 25.4445 29.9564 25.1171 29.9564V27.3257C25.8375 26.7667 26.4925 26.109 26.9837 25.3527H43.9794L43.9139 25.3198ZM51.8715 48.1736H50.3651V22.3932C50.3651 20.6833 49.0225 19.3022 47.3851 19.3022H32.5834C32.1577 19.3022 31.7975 19.6639 31.7975 20.1243C31.7975 20.5847 32.1577 20.9464 32.5834 20.9464H47.3851C48.1383 20.9464 48.7605 21.604 48.7605 22.3932V48.1736H46.108V26.0104C46.108 24.7279 45.0928 23.6757 43.8812 23.6757H27.7368C27.9661 23.0509 28.1298 22.3932 28.1953 21.7027C29.0467 21.5054 29.6689 20.7162 29.6689 19.7955V12.7256C29.6689 11.1143 28.3918 9.79899 26.8527 9.76611C26.7872 8.18772 25.5428 6.90527 24.0037 6.90527H16.8975C13.8521 6.90527 11.3633 9.47016 11.3633 12.6269V19.7955C11.3633 20.7162 11.9855 21.5054 12.8369 21.7027C12.9024 22.3932 13.0661 23.0509 13.2954 23.6757H10.0207C8.77626 23.6757 7.79385 24.7279 7.79385 26.0104V32.7185C6.74594 33.1131 5.86177 33.8037 5.17408 34.6258V22.3932C5.17408 21.604 5.79627 20.9464 6.54946 20.9464H8.51428C8.94 20.9464 9.30021 20.5847 9.30021 20.1243C9.30021 19.6639 8.94 19.3022 8.51428 19.3022H6.54946C4.9121 19.3022 3.56947 20.6833 3.56947 22.3932V48.1736H2.0631C0.916952 48.1736 -0.0327148 49.1601 -0.0327148 50.3439C-0.0327148 53.4678 2.42332 56.0327 5.4688 56.0327H48.4658C51.5113 56.0327 53.9673 53.4678 53.9673 50.3439C53.9673 49.1272 53.0176 48.1736 51.8715 48.1736Z" fill="#1A348F"/>
</g>
<defs>
<clipPath id="clip0_154_2288">
<rect width="54" height="56" fill="white"/>
</clipPath>
</defs>
</svg>
