<svg width="49" height="48" viewBox="0 0 49 48" fill="none" xmlns="http://www.w3.org/2000/svg">
<rect x="0.5" width="48" height="48" rx="24" fill="#1A348F"/>
<path fill-rule="evenodd" clip-rule="evenodd" d="M24.5 12C25.2364 12 25.8333 12.597 25.8333 13.3333V34.6667C25.8333 35.403 25.2364 36 24.5 36C23.7636 36 23.1667 35.403 23.1667 34.6667V13.3333C23.1667 12.597 23.7636 12 24.5 12Z" fill="white"/>
<path fill-rule="evenodd" clip-rule="evenodd" d="M12.5 24C12.5 23.2636 13.097 22.6667 13.8333 22.6667L35.1667 22.6667C35.903 22.6667 36.5 23.2636 36.5 24C36.5 24.7364 35.903 25.3333 35.1667 25.3333L13.8333 25.3333C13.097 25.3333 12.5 24.7364 12.5 24Z" fill="white"/>
</svg>
