<svg width="49" height="49" viewBox="0 0 49 49" fill="none" xmlns="http://www.w3.org/2000/svg">
<rect x="0.5" y="0.83374" width="48" height="48" rx="24" fill="#EAEFFF"/>
<path fill-rule="evenodd" clip-rule="evenodd" d="M32.9853 33.319C32.4646 33.8397 31.6204 33.8397 31.0997 33.319L16.0147 18.2341C15.494 17.7134 15.494 16.8692 16.0147 16.3485C16.5354 15.8278 17.3797 15.8278 17.9004 16.3485L32.9853 31.4334C33.506 31.9541 33.506 32.7983 32.9853 33.319Z" fill="#1A348F"/>
<path fill-rule="evenodd" clip-rule="evenodd" d="M32.9853 16.3485C33.506 16.8692 33.506 17.7134 32.9853 18.2341L17.9004 33.319C17.3797 33.8397 16.5354 33.8397 16.0147 33.319C15.494 32.7983 15.494 31.9541 16.0147 31.4334L31.0997 16.3485C31.6204 15.8278 32.4646 15.8278 32.9853 16.3485Z" fill="#1A348F"/>
</svg>
