<svg width="56" height="50" viewBox="0 0 56 50" fill="none" xmlns="http://www.w3.org/2000/svg">
<g clip-path="url(#clip0_154_2285)">
<path d="M43.2607 31.6885C43.0838 31.9264 42.8479 31.9858 42.7299 32.0155C42.612 32.0155 42.376 32.0155 42.1401 31.8074L40.2528 29.8752L45.148 25.5054L46.4456 26.8134L43.2607 31.6885ZM38.277 32.9073L38.336 31.748L39.0733 31.0048L39.8105 31.748L39.8695 32.9073H38.3065H38.277ZM35.3871 32.0155C35.3871 32.0155 35.0332 31.9561 34.8563 31.6885L31.6715 26.8134L32.969 25.5054L37.8642 29.8752L35.9769 31.8074C35.7705 32.0155 35.5345 32.0155 35.3871 32.0155ZM30.6688 15.6659C30.6688 15.6659 30.5509 15.6659 30.4919 15.6659C30.1675 15.6065 29.9316 15.2498 29.9316 14.8633V14.2688C29.9316 13.8824 30.197 13.5256 30.5214 13.4662C30.7868 13.4067 31.0522 13.5256 31.2291 13.7337C31.3766 13.9418 31.583 14.0904 31.8189 14.1499C32.1433 14.2391 32.5267 14.1796 32.8215 14.0013C33.3229 13.6445 33.7947 13.1689 34.178 12.6636C34.4434 12.3069 34.3845 11.7718 34.0011 11.5042C33.6472 11.2367 33.1164 11.2961 32.851 11.6826C32.6741 11.9501 32.4382 12.1879 32.2023 12.396C31.9369 12.1582 31.642 12.0096 31.3176 11.9204C31.1112 11.0881 30.7278 9.3342 30.7278 7.19389C30.7278 5.91565 31.1112 5.02385 31.8779 4.5185C32.4677 4.13206 33.1164 4.10233 33.1164 4.10233C33.3229 4.10233 33.5293 4.01315 33.6767 3.86452C33.6767 3.86452 35.7115 1.93229 39.1617 1.75394C42.3171 1.57558 44.7647 2.40792 46.2096 4.10233C47.6841 5.82647 48.1559 8.47213 47.6251 11.8015C47.4187 11.8015 47.1533 11.8015 46.9174 11.861L46.1507 9.95845C46.0032 9.57201 45.5904 9.36392 45.1775 9.48283C45.0891 9.48283 37.5398 11.4745 34.355 7.4317C34.0601 7.07498 33.5588 7.01553 33.2049 7.31279C32.851 7.61006 32.7921 8.11541 33.0869 8.50185C36.3308 12.6338 42.7594 11.742 44.9121 11.2961L45.5019 12.7527C45.7673 13.377 46.4161 13.7337 47.0648 13.5554C47.3302 13.4959 47.5956 13.4959 47.6841 13.4959C48.0085 13.5554 48.2739 13.9121 48.2739 14.2688V14.8931C48.2739 15.2795 48.038 15.6362 47.7136 15.6957C47.6546 15.6957 47.5956 15.6957 47.5367 15.6957C46.7404 15.6362 46.0327 16.2308 45.8853 17.0334C45.2955 20.3627 42.4645 22.7706 39.1617 22.7706C35.8589 22.7706 33.028 20.3627 32.4382 17.0334C32.2907 16.2308 31.5535 15.6362 30.7868 15.6957M39.1912 28.7456L34.6499 24.6731V23.0679C35.9769 23.9299 37.5398 24.4055 39.1912 24.4055C40.8426 24.4055 42.435 23.9002 43.7325 23.0679V24.6731L39.1912 28.7456ZM52.6678 27.8538L48.2149 26.1L45.9442 23.7813C45.7968 23.6327 45.6199 23.5435 45.4134 23.5435V21.7004C46.475 20.5411 47.2418 19.0548 47.5661 17.3901C47.7431 17.3901 47.9495 17.3901 48.1264 17.3306C49.2175 17.0928 50.0137 16.0821 50.0137 14.8633V14.2391C50.0137 13.5554 49.7483 12.9014 49.306 12.4555C50.0432 8.4424 49.424 5.14276 47.5661 2.97272C45.6199 0.832413 42.7004 -0.178288 39.0143 7.10208e-05C35.623 0.17843 33.4113 1.78366 32.7036 2.37819C32.3202 2.43765 31.6715 2.55655 31.0227 2.97272C30.1085 3.53753 29.0174 4.69686 29.0174 7.10471C29.0174 9.21529 29.3418 10.9692 29.5777 11.9799C28.7815 12.3663 28.2507 13.2284 28.2507 14.2391V14.8336C28.2507 16.0227 29.0469 17.0631 30.138 17.3009C30.315 17.3306 30.5214 17.3604 30.6983 17.3604C30.9932 19.025 31.7599 20.5114 32.851 21.6707V23.5137C32.6446 23.5137 32.4677 23.6029 32.3202 23.7516L30.0496 26.0702L25.5967 27.8241C25.2133 27.9727 24.83 28.1808 24.5056 28.4186C24.1222 28.6862 24.0338 29.1915 24.2992 29.578C24.4466 29.8158 24.712 29.9347 24.9774 29.9347C25.1249 29.9347 25.3018 29.8752 25.4492 29.786C25.6852 29.6077 25.9506 29.4888 26.216 29.3699L30.3739 27.7349L33.5293 32.5803C33.9126 33.1749 34.5614 33.5613 35.2691 33.6505C35.3576 33.6505 35.4166 33.6505 35.5051 33.6505C35.9179 33.6505 36.3013 33.5316 36.6551 33.3532L35.9769 49.1083C35.9769 49.5839 36.3013 49.9703 36.7731 49.9703C36.7731 49.9703 36.7731 49.9703 36.8026 49.9703C37.2449 49.9703 37.5988 49.6136 37.6283 49.1677L38.2476 34.5423H39.9579L40.5772 49.1677C40.5772 49.6136 40.9606 49.9703 41.4029 49.9703C41.4029 49.9703 41.4029 49.9703 41.4324 49.9703C41.8747 49.9703 42.2286 49.5542 42.2286 49.1083L41.5503 33.3532C41.9042 33.5613 42.2876 33.6505 42.7004 33.6505C42.7889 33.6505 42.8479 33.6505 42.9363 33.6505C43.6441 33.591 44.2634 33.2046 44.6762 32.5803L47.8315 27.7349L51.9895 29.3699C52.5793 29.6077 53.0806 29.9644 53.464 30.4103L50.633 33.2938C49.6009 34.3342 49.0406 35.7313 49.0406 37.2177V49.1083C49.0406 49.5839 49.3945 49.9406 49.8663 49.9406C50.3381 49.9406 50.692 49.5542 50.692 49.1083V37.2177C50.692 36.1772 51.0754 35.226 51.8126 34.4828L54.2897 31.9561C54.3781 32.3425 54.4371 32.729 54.4076 33.1154L53.7589 49.0785C53.7589 49.5542 54.0833 49.9406 54.5551 49.9406C54.5551 49.9406 54.5551 49.9406 54.5846 49.9406C55.0269 49.9406 55.3808 49.5839 55.4103 49.138L56.059 33.1749C56.1475 30.7967 54.7615 28.6267 52.5793 27.7944" fill="#1A348F"/>
<path d="M18.0474 35.3449L15.8652 33.4424L19.2564 29.9644L20.5245 31.2426L18.0474 35.3449ZM11.2354 35.3449L8.75828 31.2426L10.0263 29.9644L13.4176 33.4424L11.2354 35.3449ZM14.6266 28.0619C15.6882 28.0619 16.6909 27.8538 17.6345 27.4971V29.2212L14.6266 32.3128L11.6187 29.2212V27.4971C12.5624 27.8538 13.565 28.0619 14.6266 28.0619ZM7.90309 20.66C7.75565 19.8574 7.01841 19.2628 6.2517 19.3223C6.19272 19.3223 6.10425 19.3223 6.04527 19.3223C5.72089 19.2331 5.48498 18.9061 5.48498 18.5197V17.9251C5.48498 17.5387 5.75038 17.182 6.07476 17.1225C6.34016 17.0631 6.60557 17.182 6.7825 17.3901C6.92995 17.5982 7.13637 17.7468 7.37229 17.8062C7.69667 17.8954 8.08003 17.836 8.37492 17.6279C8.87623 17.2712 9.31857 16.8253 9.70193 16.3199C9.96733 15.9632 9.90836 15.4281 9.525 15.1606C9.17113 14.893 8.64032 14.9525 8.37492 15.3389C8.19798 15.5768 7.99156 15.8146 7.75565 16.0227C7.40177 15.7254 6.98893 15.5173 6.5171 15.4578C6.36965 14.8336 6.28119 14.1796 6.28119 13.5256C6.28119 9.00719 10.0558 5.35083 14.6561 5.35083C19.2564 5.35083 23.0605 9.00719 23.0605 13.5256C23.0605 14.1796 22.9721 14.8039 22.8246 15.4578C22.6182 15.4578 22.3823 15.5173 22.1759 15.5768L21.5566 15.0714C21.2322 14.8039 20.8489 14.685 20.4655 14.7147C19.2564 14.7741 13.0932 14.9525 9.90836 11.088C9.61346 10.7313 9.11215 10.6719 8.75828 10.9691C8.40441 11.2664 8.37492 11.8015 8.64032 12.1582C10.2032 14.0607 12.5034 15.3687 15.4523 15.9929C17.723 16.4685 19.7283 16.4388 20.5245 16.3794L21.4976 17.182C21.763 17.3901 22.1464 17.4495 22.4413 17.2712C22.5887 17.182 23.0605 17.1225 23.2375 17.1523C23.5619 17.2117 23.8273 17.5684 23.8273 17.9251V18.5494C23.8273 18.9358 23.5913 19.2926 23.267 19.352C23.208 19.352 23.1195 19.352 23.0605 19.352C22.2643 19.2926 21.5566 19.8871 21.4091 20.6897C20.8194 24.0191 17.9884 26.4269 14.6856 26.4269C11.3828 26.4269 8.55185 24.0191 7.96207 20.6897M14.6266 1.66474C16.3665 1.66474 17.841 2.79435 18.2833 4.34013C17.1627 3.89423 15.9242 3.65642 14.6266 3.65642C13.3291 3.65642 12.12 3.89423 10.97 4.34013C11.4123 2.79435 12.8868 1.66474 14.6266 1.66474ZM26.0095 32.2236L21.9989 30.44L19.8167 28.2105C19.6693 28.0619 19.4923 27.9727 19.2859 27.9727V26.6647C21.1437 25.4162 22.5297 23.4246 22.9721 21.0464C23.1785 21.0464 23.4144 21.0464 23.6208 20.987C24.6825 20.7194 25.4197 19.7087 25.4197 18.5494V17.9251C25.4197 17.0631 25.0068 16.3199 24.3581 15.874C24.535 15.1011 24.653 14.3282 24.653 13.5553C24.653 10.0773 22.8246 7.04524 20.0526 5.26165C20.0232 2.37818 17.605 0.0297852 14.6266 0.0297852C11.6482 0.0297852 9.2301 2.37818 9.20062 5.26165C6.42863 7.01552 4.6003 10.0773 4.6003 13.5553C4.6003 14.3282 4.68877 15.1011 4.89519 15.874C4.24643 16.3199 3.83358 17.0928 3.83358 17.9549V18.5494C3.83358 19.7087 4.6003 20.7492 5.63242 20.987C5.83885 21.0464 6.07476 21.0464 6.28119 21.0464C6.72352 23.4246 8.08003 25.4162 9.96734 26.6647V27.9727C9.7904 27.9727 9.58398 28.0619 9.43653 28.2105L7.25433 30.44L3.2438 32.2236C1.20904 33.1451 -0.0884836 35.2557 -1.59806e-05 37.5447L0.471811 49.1974C0.471811 49.6433 0.855171 50.0001 1.29751 50.0001C1.29751 50.0001 1.29751 50.0001 1.327 50.0001C1.76934 50.0001 2.12321 49.5839 2.12321 49.138L1.65138 37.4852C1.62189 36.742 1.79883 35.9989 2.18219 35.3746L4.3349 38.0203C5.01315 38.8526 5.39651 39.9228 5.39651 40.9929V49.1974C5.39651 49.6731 5.75038 50.0298 6.22221 50.0298C6.69403 50.0298 7.0479 49.6433 7.0479 49.1974V40.9929C7.0479 39.5066 6.54659 38.0797 5.60293 36.9501L3.30277 34.1558C3.5092 34.0072 3.71562 33.8883 3.92205 33.7991L7.40177 32.2533L9.87887 36.3556C10.1148 36.7718 10.5276 37.0393 10.9995 37.0988C11.0879 37.0988 11.1764 37.0988 11.2354 37.0988C11.6187 37.0988 11.9726 36.9501 12.2675 36.7123L13.8304 35.3449V49.1974C13.8304 49.6731 14.1843 50.0298 14.6561 50.0298C15.1279 50.0298 15.4818 49.6433 15.4818 49.1974V35.3449L17.0447 36.7123C17.3396 36.9501 17.6935 37.0988 18.0769 37.0988C18.1653 37.0988 18.2538 37.0988 18.3128 37.0988C18.7846 37.0393 19.168 36.742 19.4334 36.3556L21.9105 32.2831L25.3902 33.8288C25.5966 33.918 25.8325 34.0369 26.0095 34.1856L23.7093 36.9798C22.7951 38.1095 22.2643 39.5363 22.2643 41.0227V49.2272C22.2643 49.7028 22.6182 50.0595 23.09 50.0595C23.5619 50.0595 23.9157 49.6731 23.9157 49.2272V41.0227C23.9157 39.9525 24.2991 38.8823 24.9773 38.05L27.1301 35.4043C27.4839 36.0286 27.6903 36.7718 27.6609 37.5149L27.189 49.1677C27.189 49.6433 27.5134 50.0298 27.9852 50.0298C27.9852 50.0298 27.9852 50.0298 28.0147 50.0298C28.4571 50.0298 28.8109 49.6731 28.8404 49.2272L29.3123 37.5744C29.4007 35.3152 28.1032 33.1749 26.0684 32.2533" fill="#1A348F"/>
</g>
<defs>
<clipPath id="clip0_154_2285">
<rect width="56" height="50" fill="white"/>
</clipPath>
</defs>
</svg>
