<svg width="54" height="53" viewBox="0 0 54 53" fill="none" xmlns="http://www.w3.org/2000/svg">
<g clip-path="url(#clip0_154_2267)">
<path d="M26.8342 46.2782H31.781V51.4233H26.8342V46.2782ZM3.70322 39.2521V37.1221C3.70322 31.2855 8.53945 26.5553 14.4811 26.5553C20.4228 26.5553 25.259 31.2855 25.259 37.1221V39.2521H3.70322ZM6.07988 7.10908H12.3808C12.3808 7.10908 12.6019 7.19207 12.6019 7.33037V9.54332H5.88644V7.33037C5.88644 7.33037 5.96934 7.10908 6.10752 7.10908M10.17 3.92797C10.17 2.62787 11.2477 1.54906 12.6019 1.54906H42.2549C43.5814 1.54906 44.6868 2.60021 44.6868 3.92797V32.2813H43.2774V7.63465C43.2774 6.00261 41.9233 4.67484 40.2651 4.67484H30.648C28.9898 4.67484 27.6357 6.00261 27.6357 7.63465V9.68163H25.2866C24.2918 9.68163 23.4903 10.4838 23.4903 11.452V13.7479C23.2416 13.8862 23.1034 14.1352 23.1034 14.4118C23.1034 14.6884 23.2692 14.965 23.4903 15.0757V17.9525H14.2324C14.2324 12.4755 14.2324 20.4974 14.2324 10.9541C14.4811 10.8158 14.6193 10.5668 14.6193 10.2902C14.6193 10.0136 14.4535 9.73695 14.2324 9.6263V7.33037C14.2324 6.36221 13.431 5.56002 12.4361 5.56002H10.1976V3.92797H10.17ZM46.4003 33.9963V35.1858H41.3429V33.9963C41.3429 33.9963 41.4258 33.8304 41.5088 33.8304H46.2068C46.2068 33.8304 46.3726 33.9134 46.3726 33.9963M48.1137 36.9562C48.4453 37.6477 48.7493 38.3392 48.9704 39.0308H38.7176C38.9663 38.3392 39.2426 37.6477 39.5743 36.9562C39.6295 36.8178 39.7677 36.7625 39.9059 36.7625H47.7544C47.8926 36.7625 48.0308 36.8455 48.086 36.9562M36.3685 46.2782C36.5896 47.9932 37.1147 49.7082 37.8885 51.4233H33.301V46.2782H36.3685ZM26.779 43.6503H36.2303C36.2303 44.0099 36.2303 44.3695 36.2303 44.7291H26.779V43.6503ZM27.304 40.8288C27.7462 40.8288 28.1055 40.4692 28.1055 40.0543C28.1055 39.6393 27.7462 39.2797 27.304 39.2797H26.779V38.1456H31.7257V42.1012H26.779V40.8288H27.304ZM25.0103 29.4321H31.7257V36.5965H26.779C26.6961 34.4943 26.0604 32.5579 25.0103 30.8706V29.4321ZM14.1495 22.1848H23.4074C23.4074 22.3507 23.4074 29.2938 23.4074 28.8512C21.1413 26.5 17.9632 25.0339 14.4258 25.0339C14.3153 25.0339 14.2324 25.0339 14.1219 25.0339V22.1848H14.1495ZM12.5743 22.3231V25.1722C9.97651 25.5595 7.65511 26.749 5.8588 28.464V22.3231H12.5743ZM12.5743 13.6649H10.8056C10.3634 13.6649 10.0041 14.0245 10.0041 14.4395C10.0041 14.8544 10.3634 15.214 10.8056 15.214H12.5743V20.774H5.8588V15.214H7.62748C8.06965 15.214 8.42891 14.8544 8.42891 14.4395C8.42891 14.0245 8.06965 13.6649 7.62748 13.6649H5.8588V11.12H12.5743V13.6649ZM23.4351 20.6357H14.1771V19.5845H23.4351V20.6357ZM31.5323 11.286C31.5323 11.286 31.7534 11.369 31.7534 11.5073V13.7202H25.0379V11.5073C25.0379 11.5073 25.1208 11.286 25.259 11.286H31.5599H31.5323ZM25.0103 22.3231H31.7257V27.8831H25.0103V22.3231ZM25.0103 15.2416H31.7257V20.774H25.0103V15.2416ZM41.6469 32.309H41.4811C40.5139 32.309 39.7401 33.0835 39.7401 34.024V35.2411C39.0492 35.2964 38.4412 35.7114 38.1648 36.3199C37.7227 37.2328 37.3358 38.1456 37.0594 39.0861C36.6172 39.0861 36.258 39.4457 36.258 39.8606C36.258 40.1649 36.4238 40.4139 36.6725 40.5522C36.562 41.0778 36.4514 41.6033 36.3962 42.1289H33.3562C33.3562 39.3904 33.3562 20.9123 33.3562 15.1587C33.605 15.0204 33.7431 14.7714 33.7431 14.4948C33.7431 14.2182 33.5773 13.9415 33.3562 13.8309V11.535C33.3562 10.5668 32.5548 9.76461 31.5599 9.76461H29.2109V7.71764C29.2109 6.94311 29.8465 6.30689 30.648 6.30689H40.2651C41.0389 6.30689 41.7022 6.94311 41.7022 7.71764V32.3643L41.6469 32.309ZM12.1045 47.357H16.7749V51.4786H12.1045V47.357ZM53.1986 51.4786H49.7442C50.3798 50.0955 50.8496 48.6848 51.1259 47.274C51.2089 46.8591 50.9325 46.4441 50.4903 46.3612C50.0482 46.2782 49.6336 46.5548 49.5507 46.9697C49.2467 48.4635 48.7217 49.9572 47.9755 51.4786H44.6039V50.2891C44.6039 49.8742 44.2447 49.5146 43.8025 49.5146C43.3603 49.5146 43.0011 49.8742 43.0011 50.2891V51.4786H39.6295C38.4412 49.1273 37.8332 46.7761 37.7779 44.4525C37.7779 43.1801 37.8885 41.9076 38.1925 40.6352H49.3573C49.6336 41.7693 49.7718 42.9034 49.7718 44.0376C49.7718 44.4525 50.1311 44.8121 50.5732 44.8121C51.0154 44.8121 51.3747 44.4525 51.347 44.0376C51.347 42.8758 51.2089 41.714 50.9325 40.5522C51.1812 40.4139 51.347 40.1649 51.347 39.8606C51.347 39.4181 50.9878 39.0861 50.5456 39.0861C50.2692 38.1733 49.8823 37.2604 49.4402 36.3199C49.1362 35.7114 48.5282 35.2964 47.8649 35.2411V34.024C47.8649 33.0835 47.0912 32.309 46.1515 32.309V3.92797C46.1515 1.77035 44.3552 0 42.1444 0H12.5743C10.3634 0 8.56709 1.77035 8.56709 3.92797V5.56002H6.07988C5.085 5.56002 4.28357 6.36221 4.28357 7.33037V9.6263C4.03485 9.76461 3.89667 10.0136 3.89667 10.2902C3.89667 10.5668 4.06248 10.8434 4.28357 10.9541V30.2343C2.90179 32.1983 2.10035 34.5496 2.10035 37.0945V39.2244H1.57528C1.13311 39.2244 0.773845 39.584 0.773845 39.999C0.773845 40.4139 1.13311 40.7735 1.57528 40.7735H2.10035V44.9504C2.10035 45.3653 2.45962 45.7249 2.90179 45.7249C3.34396 45.7249 3.70322 45.3653 3.70322 44.9504V40.7735H25.259V51.3956H18.4054V47.108C18.4054 46.3335 17.7698 45.7249 16.996 45.7249H11.9939C11.2201 45.7249 10.5845 46.3335 10.5845 47.108V51.3956H3.70322V48.0485C3.70322 47.6336 3.34396 47.274 2.90179 47.274C2.45962 47.274 2.10035 47.6336 2.10035 48.0485V51.3956H0.773845C0.331675 51.3956 -0.0275879 51.7552 -0.0275879 52.1701C-0.0275879 52.5851 0.331675 52.9447 0.773845 52.9447H53.1986C53.6408 52.9447 54.0001 52.5851 54.0001 52.1701C54.0001 51.7552 53.6408 51.3956 53.1986 51.3956" fill="#1A348F"/>
</g>
<defs>
<clipPath id="clip0_154_2267">
<rect width="54" height="53" fill="white"/>
</clipPath>
</defs>
</svg>
