<svg width="52" height="52" viewBox="0 0 52 52" fill="none" xmlns="http://www.w3.org/2000/svg">
<g clip-path="url(#clip0_152_2250)">
<path d="M42.1513 22.2398C41.8837 22.1863 41.6161 22.1595 41.3217 22.1863L38.7792 22.4272C38.5383 22.4272 38.3242 22.4272 38.1101 22.3201L34.7648 20.7411C34.3098 20.527 34.0154 20.0721 34.0154 19.5636V16.6197C34.0154 15.6294 33.4802 14.6927 32.6238 14.1843L29.0108 12.0968C28.6094 11.8559 28.3685 11.4277 28.3685 10.9727V9.17962C28.3685 8.45703 28.9573 7.89501 29.6531 7.89501H40.1441C43.1683 11.2671 44.9882 15.7097 44.9882 20.5805C44.9882 21.3299 44.9346 22.0793 44.8543 22.8286L42.0978 22.2666L42.1513 22.2398ZM21.5172 8.32321C21.5172 8.32321 21.5172 8.51055 21.4905 8.59084L17.5028 14.3716C17.5028 14.3716 17.369 14.5054 17.262 14.5054H14.3448C13.5687 14.5054 12.8729 14.9871 12.632 15.7365L11.053 20.3664C11.053 20.3664 10.8924 20.5538 10.7854 20.5538C10.1698 20.5538 9.60782 20.8749 9.25991 21.3834C8.91199 21.8919 8.88523 22.5342 9.12609 23.0962L11.508 28.4488C11.508 28.4488 11.508 28.7164 11.4277 28.7967L9.5543 30.2151C7.86824 27.3248 6.95831 24.0329 6.95831 20.6073C6.95831 12.4179 12.1503 5.40607 19.4297 2.7298L21.4905 8.34997L21.5172 8.32321ZM50.9563 27.4853C50.2604 26.7895 49.3237 26.4148 48.3335 26.4148C47.3433 26.4148 46.4601 26.8163 45.7643 27.5389L45.0417 28.2615C46.0319 25.826 46.5404 23.2033 46.5404 20.5538C46.5404 9.20638 37.3073 0 25.9866 0C14.666 0 5.43284 9.23314 5.43284 20.5538C5.43284 25.4781 7.14565 30.1348 10.3037 33.8549H0.749357C0.321153 33.8549 0 34.2028 0 34.6042V37.0664C0 37.4946 0.347916 37.8158 0.749357 37.8158C1.1508 37.8158 1.49871 37.4678 1.49871 37.0664V35.3803H8.1894V50.4745H1.52548V40.6258C1.52548 40.1976 1.17756 39.8765 0.776119 39.8765C0.374678 39.8765 0.0267627 40.2244 0.0267627 40.6258V51.2239C0.0267627 51.6521 0.374678 51.9732 0.776119 51.9732H8.99228C9.42048 51.9732 9.74164 51.6253 9.74164 51.2239V49.2167H11.4277C11.8559 49.2167 12.177 48.8688 12.177 48.4673C12.177 48.0659 11.8291 47.718 11.4277 47.718H9.74164V35.3803H11.1868C12.1235 35.3803 13.087 35.1395 13.9166 34.7113L18.3592 32.3829C18.9748 32.0618 19.6706 31.8744 20.3932 31.8744H23.7118C24.14 31.8744 24.4611 31.5265 24.4611 31.1251C24.4611 30.7236 24.1132 30.3757 23.7118 30.3757H20.3932C19.4565 30.3757 18.493 30.6166 17.6634 31.0448L13.2208 33.3731C12.9264 33.5337 12.6052 33.6408 12.2573 33.7478C11.5883 33.0252 10.946 32.2759 10.4107 31.4997L12.3911 30.0278C13.0602 29.5193 13.3011 28.6094 12.9532 27.86L10.5713 22.5075C10.5713 22.5075 10.5713 22.2934 10.5713 22.2398C10.598 22.1863 10.6783 22.106 10.8121 22.106C11.5883 22.106 12.2841 21.6243 12.525 20.8749L14.104 16.245C14.104 16.245 14.2378 16.0576 14.3716 16.0576H17.2887C17.8775 16.0576 18.4395 15.7633 18.7874 15.2815L22.7751 9.50077C23.123 9.01904 23.1765 8.4035 22.9892 7.84148L20.9285 2.27483C22.561 1.81987 24.2738 1.579 26.0401 1.579C30.911 1.579 35.3268 3.39887 38.6989 6.42306H29.7334C28.1812 6.42306 26.9233 7.68091 26.9233 9.23314V11.0262C26.9233 12.0165 27.4586 12.9532 28.315 13.4617L31.9279 15.5492C32.3294 15.79 32.5703 16.2182 32.5703 16.6732V19.6171C32.5703 20.7144 33.2126 21.7046 34.176 22.1595L37.5214 23.7385C37.9763 23.9527 38.4848 24.0329 38.9665 24.0062L41.509 23.7653C41.509 23.7653 41.7499 23.7653 41.8837 23.7653L44.7205 24.3541C44.0782 27.6191 42.5795 30.6701 40.3582 33.1858L38.913 34.6577C38.351 35.1662 37.789 35.648 37.1734 36.0762H32.9182C33.3196 35.4874 33.5605 34.7916 33.5605 34.0154C33.5605 32.035 31.9547 30.4292 29.9743 30.4292H27.2712C26.843 30.4292 26.5219 30.7771 26.5219 31.1786C26.5219 31.58 26.8698 31.9279 27.2712 31.9279H29.9743C31.0983 31.9279 32.035 32.8646 32.035 33.9887C32.035 35.1127 31.0983 36.0494 29.9743 36.0494H20.1791C19.7509 36.0494 19.4297 36.3973 19.4297 36.7988C19.4297 37.2002 19.7777 37.5481 20.1791 37.5481H37.8425C38.0566 37.5481 38.2439 37.4678 38.3778 37.3073L46.9151 28.6094C47.2898 28.2079 47.825 27.9671 48.387 27.9671C48.949 27.9671 49.4843 28.1812 49.8857 28.5826C50.6886 29.3855 50.6886 30.6433 49.9393 31.4462L41.5893 40.385C40.3314 41.7499 38.7257 42.6866 36.9326 43.1415L19.5636 47.4503C18.8142 47.6377 18.0381 47.718 17.2887 47.718H15.0139C14.5857 47.718 14.2645 48.0659 14.2645 48.4673C14.2645 48.8688 14.6125 49.2167 15.0139 49.2167H17.2887C18.1719 49.2167 19.0818 49.1096 19.9382 48.8955L37.3073 44.5867C39.3947 44.0782 41.2681 42.981 42.7133 41.402L51.0633 32.4632C52.4014 31.0448 52.3479 28.8502 50.983 27.4853" fill="#283582"/>
<path d="M4.28204 40.171C4.28204 39.8498 4.54967 39.609 4.84406 39.609C5.13845 39.609 5.40607 39.8766 5.40607 40.171C5.40607 40.4654 5.13845 40.733 4.84406 40.733C4.54967 40.733 4.28204 40.4654 4.28204 40.171ZM6.95831 40.171C6.95831 39.0202 6.02162 38.0835 4.87082 38.0835C3.72002 38.0835 2.78333 39.0202 2.78333 40.171C2.78333 41.3218 3.72002 42.2585 4.87082 42.2585C6.02162 42.2585 6.95831 41.3218 6.95831 40.171Z" fill="#283582"/>
<path d="M33.3999 26.9768C33.4802 26.7894 33.5337 26.6021 33.5605 26.4147L33.6407 25.6921L35.193 26.4147L33.7746 28.8501L32.704 28.5022L33.3999 26.9768ZM32.0617 29.9207L33.3999 30.3756C33.5337 30.4291 33.6943 30.4559 33.8281 30.4559C34.3098 30.4559 34.7648 30.215 35.0324 29.7601L36.5846 27.0838C36.772 26.7627 36.8255 26.3612 36.7185 25.9865C36.6114 25.6119 36.3438 25.3175 35.9959 25.1569L34.0957 24.2737C33.6943 24.0864 33.2125 24.1131 32.8379 24.3272C32.4632 24.5413 32.1956 24.9428 32.142 25.371L32.035 26.2809C32.035 26.2809 32.035 26.3344 32.035 26.3612L31.2589 28.0473C31.0983 28.3952 31.0983 28.8234 31.2589 29.1713C31.4194 29.5192 31.7138 29.8136 32.0885 29.9207" fill="#283582"/>
<path d="M15.7633 21.8116L14.7463 22.8286C14.4519 23.123 14.4519 23.6047 14.7463 23.8991C14.9069 24.0597 15.0942 24.1132 15.2816 24.1132C15.4689 24.1132 15.683 24.0329 15.8168 23.8991L16.8338 22.8821C17.1282 22.5877 17.1282 22.106 16.8338 21.8116C16.5394 21.5172 16.0577 21.5172 15.7633 21.8116Z" fill="#283582"/>
<path d="M38.4581 10.8927C38.1637 10.5983 37.6819 10.5983 37.3876 10.8927L36.3706 11.9097C36.0762 12.204 36.0762 12.6858 36.3706 12.9802C36.5311 13.1407 36.7185 13.1943 36.9058 13.1943C37.0932 13.1943 37.3073 13.114 37.4411 12.9802L38.4581 11.9632C38.7525 11.6688 38.7525 11.1871 38.4581 10.8927Z" fill="#283582"/>
<path d="M39.2074 12.7389L38.1904 13.7558C37.896 14.0502 37.896 14.532 38.1904 14.8264C38.351 14.9869 38.5383 15.0405 38.7257 15.0405C38.913 15.0405 39.1271 14.9602 39.2609 14.8264L40.2779 13.8094C40.5723 13.515 40.5723 13.0332 40.2779 12.7389C39.9835 12.4445 39.5018 12.4445 39.2074 12.7389Z" fill="#283582"/>
<path d="M26.0937 23.2299L24.1935 23.3904C23.8991 23.3904 23.6047 23.5243 23.3371 23.6848L22.4004 24.3004C22.4004 24.3004 22.1595 24.3539 22.0793 24.2736L21.9187 24.113C21.9187 24.113 21.8116 23.8722 21.8919 23.7651L26.7627 17.0209C26.7627 17.0209 26.8966 16.9139 26.9768 16.9139C27.0304 16.9139 27.0571 16.9139 27.1107 16.9406L28.6629 17.7435C28.6629 17.7435 28.8235 17.9041 28.7967 18.0111L28.5023 20.5804C28.5023 20.5804 28.4756 20.6874 28.4488 20.7142L26.281 23.1496C26.281 23.1496 26.174 23.2299 26.0937 23.2299ZM27.405 24.1666L29.5728 21.7312C29.8137 21.4635 29.9743 21.1156 30.0278 20.7409L30.3222 18.1717C30.4025 17.4491 30.0278 16.7265 29.3587 16.3786L27.8065 15.5757C27.0036 15.1743 26.0669 15.3884 25.5317 16.111L20.6608 22.8552C20.1523 23.5778 20.2326 24.5412 20.8482 25.1568L21.0087 25.3174C21.3567 25.6653 21.8116 25.8259 22.2666 25.8259C22.6145 25.8259 22.9624 25.7188 23.2568 25.5315L24.1935 24.9159C24.1935 24.9159 24.2738 24.8624 24.3273 24.8624L26.2275 24.7018C26.6824 24.6751 27.1107 24.461 27.405 24.113" fill="#283582"/>
</g>
<defs>
<clipPath id="clip0_152_2250">
<rect width="52" height="52" fill="white"/>
</clipPath>
</defs>
</svg>
