<svg width="28" height="28" viewBox="0 0 28 28" fill="none" xmlns="http://www.w3.org/2000/svg">
<path d="M22.1875 14.4944V12.3125H20.5V14.8438C20.5 15.0675 20.589 15.2821 20.7472 15.4403L23.0312 17.7243V19.0625H4.46875V17.7243L6.75278 15.4403C6.91103 15.2821 6.99995 15.0675 7 14.8438V11.4688C6.99765 10.2831 7.30822 9.11784 7.90035 8.09064C8.49249 7.06345 9.3452 6.2107 10.3724 5.61853C11.3996 5.02636 12.5648 4.71575 13.7505 4.71806C14.9361 4.72037 16.1001 5.03552 17.125 5.63169V3.74591C16.3218 3.39028 15.4676 3.16362 14.5938 3.07428V1.34375H12.9062V3.07344C10.826 3.28516 8.89824 4.26069 7.49559 5.81139C6.09295 7.36209 5.31512 9.3778 5.3125 11.4688V14.4944L3.02847 16.7785C2.87022 16.9367 2.7813 17.1512 2.78125 17.375V19.9062C2.78125 20.13 2.87014 20.3446 3.02838 20.5029C3.18661 20.6611 3.40122 20.75 3.625 20.75H9.53125V21.5938C9.53125 22.7126 9.97572 23.7857 10.7669 24.5769C11.5581 25.368 12.6311 25.8125 13.75 25.8125C14.8689 25.8125 15.9419 25.368 16.7331 24.5769C17.5243 23.7857 17.9688 22.7126 17.9688 21.5938V20.75H23.875C24.0988 20.75 24.3134 20.6611 24.4716 20.5029C24.6299 20.3446 24.7188 20.13 24.7188 19.9062V17.375C24.7187 17.1512 24.6298 16.9367 24.4715 16.7785L22.1875 14.4944ZM16.2812 21.5938C16.2812 22.2651 16.0146 22.9089 15.5399 23.3836C15.0652 23.8583 14.4213 24.125 13.75 24.125C13.0787 24.125 12.4348 23.8583 11.9601 23.3836C11.4854 22.9089 11.2188 22.2651 11.2188 21.5938V20.75H16.2812V21.5938Z" fill="#1A348F"/>
<path d="M22.1875 10.625C24.0515 10.625 25.5625 9.11396 25.5625 7.25C25.5625 5.38604 24.0515 3.875 22.1875 3.875C20.3235 3.875 18.8125 5.38604 18.8125 7.25C18.8125 9.11396 20.3235 10.625 22.1875 10.625Z" fill="#FF0707"/>
</svg>
