<svg width="32" height="32" viewBox="0 0 32 32" fill="none" xmlns="http://www.w3.org/2000/svg">
<path fill-rule="evenodd" clip-rule="evenodd" d="M15.3999 13.6C17.3881 13.6 18.9999 11.9882 18.9999 10C18.9999 8.01178 17.3881 6.4 15.3999 6.4C13.4117 6.4 11.7999 8.01178 11.7999 10C11.7999 11.9882 13.4117 13.6 15.3999 13.6ZM15.3999 16C18.7136 16 21.3999 13.3137 21.3999 10C21.3999 6.68629 18.7136 4 15.3999 4C12.0862 4 9.39991 6.68629 9.39991 10C9.39991 13.3137 12.0862 16 15.3999 16Z" fill="#1A348F"/>
<path fill-rule="evenodd" clip-rule="evenodd" d="M16.5999 20.8C20.1693 20.8 23.132 23.3973 23.7012 26.805C23.8104 27.4587 24.3372 28 24.9999 28C25.6626 28 26.2078 27.4601 26.1259 26.8024C25.5365 22.0657 21.4963 18.4 16.5999 18.4H15.3999C10.5035 18.4 6.46334 22.0657 5.87388 26.8024C5.79204 27.4601 6.33717 28 6.99991 28C7.66265 28 8.18943 27.4587 8.29862 26.805C8.86784 23.3973 11.8306 20.8 15.3999 20.8H16.5999Z" fill="#1A348F"/>
</svg>
