<svg width="123" height="123" viewBox="0 0 123 123" fill="none" xmlns="http://www.w3.org/2000/svg">
<path d="M35.875 15.375H25.625C22.9065 15.375 20.2994 16.4549 18.3772 18.3772C16.4549 20.2994 15.375 22.9065 15.375 25.625V35.875M87.125 15.375H97.375C100.093 15.375 102.701 16.4549 104.623 18.3772C106.545 20.2994 107.625 22.9065 107.625 25.625V35.875M82 41V51.25M41 41V51.25M46.125 82C46.125 82 51.25 87.125 61.5 87.125C71.75 87.125 76.875 82 76.875 82M61.5 41V66.625H56.375M35.875 107.625H25.625C22.9065 107.625 20.2994 106.545 18.3772 104.623C16.4549 102.701 15.375 100.093 15.375 97.375V87.125M87.125 107.625H97.375C100.093 107.625 102.701 106.545 104.623 104.623C106.545 102.701 107.625 100.093 107.625 97.375V87.125" stroke="#1A348F" stroke-width="3" stroke-linecap="round" stroke-linejoin="round"/>
</svg>
