<svg width="64" height="64" viewBox="0 0 64 64" fill="none" xmlns="http://www.w3.org/2000/svg">
<path d="M24 26.6668L32.688 33.1842C33.2262 33.5878 33.8972 33.7731 34.5663 33.7029C35.2354 33.6327 35.8533 33.3121 36.296 32.8055L53.3333 13.3335" stroke="#1A348F" stroke-width="2" stroke-linecap="round"/>
<path d="M56 32.0001C56.0001 37.0148 54.4294 41.9036 51.5084 45.9798C48.5875 50.0561 44.4631 53.1149 39.7145 54.7268C34.9658 56.3388 29.8316 56.4227 25.0328 54.9669C20.234 53.5112 16.0118 50.5888 12.9591 46.6103C9.90646 42.6317 8.17671 37.7969 8.01283 32.7848C7.84894 27.7728 9.25915 22.8353 12.0454 18.6658C14.8316 14.4964 18.8539 11.3044 23.5474 9.53823C28.2408 7.77208 33.3696 7.52046 38.2133 8.81872" stroke="#1A348F" stroke-width="2" stroke-linecap="round"/>
</svg>
